<svg width="62" height="62" viewBox="0 0 62 62" fill="none" xmlns="http://www.w3.org/2000/svg">
<path d="M15.5 5.16666L7.75 15.5V51.6667C7.75 53.0369 8.29434 54.3511 9.26328 55.32C10.2322 56.289 11.5464 56.8333 12.9167 56.8333H49.0833C50.4536 56.8333 51.7678 56.289 52.7367 55.32C53.7057 54.3511 54.25 53.0369 54.25 51.6667V15.5L46.5 5.16666H15.5Z" stroke="black" stroke-width="0.416667" stroke-linecap="round" stroke-linejoin="round"/>
<path d="M7.75 15.5H54.25" stroke="black" stroke-width="0.416667" stroke-linecap="round" stroke-linejoin="round"/>
<path d="M41.3334 25.8333C41.3334 28.5739 40.2447 31.2022 38.3069 33.1401C36.369 35.078 33.7407 36.1667 31.0001 36.1667C28.2595 36.1667 25.6312 35.078 23.6933 33.1401C21.7554 31.2022 20.6667 28.5739 20.6667 25.8333" stroke="black" stroke-width="0.416667" stroke-linecap="round" stroke-linejoin="round"/>
</svg>
